<svg xmlns="http://www.w3.org/2000/svg" viewBox="0 0 1600 900" role="img" aria-labelledby="title desc">
  <title id="title">ChineseSafe Benchmark leaderboard preview</title>
  <desc id="desc">A leaderboard interface preview with filters, tabs, and safety benchmark model scores.</desc>
  <defs>
    <filter id="shadow" x="-8%" y="-30%" width="116%" height="160%">
      <feDropShadow dx="0" dy="7" stdDeviation="10" flood-color="#1f2937" flood-opacity="0.08"/>
    </filter>
    <style>
      .label { fill: #6b7280; font: 600 19px Inter, Arial, sans-serif; }
      .muted { fill: #9ca3af; font: 400 16px Inter, Arial, sans-serif; }
      .cell { fill: #1f2937; font: 500 20px "SFMono-Regular", Consolas, monospace; }
      .head { fill: #1f2937; font: 700 21px "SFMono-Regular", Consolas, monospace; }
      .tab { fill: #374151; font: 600 18px Inter, Arial, sans-serif; }
      .chip { fill: #374151; font: 600 16px Inter, Arial, sans-serif; }
    </style>
  </defs>

  <rect width="1600" height="900" fill="#ffffff"/>

  <g transform="translate(64 46)">
    <rect x="0" y="0" width="386" height="128" rx="10" fill="#ffffff" stroke="#e5e7eb" filter="url(#shadow)"/>
    <text x="16" y="31" class="label">Type</text>
    <text x="16" y="58" class="muted">Please choose the type to display.</text>
    <rect x="16" y="82" width="354" height="47" rx="9" fill="#ffffff" stroke="#e5e7eb" filter="url(#shadow)"/>
    <text x="36" y="113" class="chip">Overall</text>
    <path d="M314 103l6 7l7-7z" fill="#1f2937"/>
  </g>

  <g transform="translate(470 46)">
    <rect x="0" y="0" width="1066" height="122" rx="10" fill="#ffffff" stroke="#e5e7eb" filter="url(#shadow)"/>
    <text x="16" y="31" class="label">Model Size</text>
    <text x="16" y="58" class="muted">Please choose the model size to display.</text>
    <g transform="translate(16 82)">
      <g>
        <rect x="0" y="0" width="95" height="41" rx="9" fill="#ffffff" stroke="#e5e7eb"/>
        <rect x="16" y="12" width="18" height="18" rx="4" fill="#2563eb"/>
        <path d="M20 21l4 5l8-10" fill="none" stroke="#fff" stroke-width="3" stroke-linecap="round" stroke-linejoin="round"/>
        <text x="44" y="27" class="chip">&gt;65B</text>
      </g>
      <g transform="translate(105 0)">
        <rect x="0" y="0" width="95" height="41" rx="9" fill="#ffffff" stroke="#e5e7eb"/>
        <rect x="16" y="12" width="18" height="18" rx="4" fill="#2563eb"/>
        <path d="M20 21l4 5l8-10" fill="none" stroke="#fff" stroke-width="3" stroke-linecap="round" stroke-linejoin="round"/>
        <text x="44" y="27" class="chip">~30B</text>
      </g>
      <g transform="translate(210 0)">
        <rect x="0" y="0" width="120" height="41" rx="9" fill="#ffffff" stroke="#e5e7eb"/>
        <rect x="16" y="12" width="18" height="18" rx="4" fill="#2563eb"/>
        <path d="M20 21l4 5l8-10" fill="none" stroke="#fff" stroke-width="3" stroke-linecap="round" stroke-linejoin="round"/>
        <text x="44" y="27" class="chip">10B~20B</text>
      </g>
      <g transform="translate(340 0)">
        <rect x="0" y="0" width="112" height="41" rx="9" fill="#ffffff" stroke="#e5e7eb"/>
        <rect x="16" y="12" width="18" height="18" rx="4" fill="#2563eb"/>
        <path d="M20 21l4 5l8-10" fill="none" stroke="#fff" stroke-width="3" stroke-linecap="round" stroke-linejoin="round"/>
        <text x="44" y="27" class="chip">5B~10B</text>
      </g>
      <g transform="translate(462 0)">
        <rect x="0" y="0" width="105" height="41" rx="9" fill="#ffffff" stroke="#e5e7eb"/>
        <rect x="16" y="12" width="18" height="18" rx="4" fill="#2563eb"/>
        <path d="M20 21l4 5l8-10" fill="none" stroke="#fff" stroke-width="3" stroke-linecap="round" stroke-linejoin="round"/>
        <text x="44" y="27" class="chip">1B~5B</text>
      </g>
      <g transform="translate(577 0)">
        <rect x="0" y="0" width="83" height="41" rx="9" fill="#ffffff" stroke="#e5e7eb"/>
        <rect x="16" y="12" width="18" height="18" rx="4" fill="#2563eb"/>
        <path d="M20 21l4 5l8-10" fill="none" stroke="#fff" stroke-width="3" stroke-linecap="round" stroke-linejoin="round"/>
        <text x="44" y="27" class="chip">API</text>
      </g>
    </g>
  </g>

  <g transform="translate(64 230)">
    <rect x="0" y="0" width="1472" height="610" rx="11" fill="#ffffff" stroke="#e5e7eb"/>
    <g transform="translate(14 0)">
      <path d="M0 34q0-34 12-34h112q12 0 12 34v0h-136z" fill="#ffffff" stroke="#e5e7eb"/>
      <text x="24" y="22" class="tab">🏅 Generation</text>
      <text x="163" y="22" class="tab" opacity="0.55">🏅 Perplexity</text>
      <text x="303" y="22" class="tab" opacity="0.55">🏅 NEW</text>
    </g>

    <g transform="translate(14 36)">
      <rect x="0" y="0" width="1444" height="566" rx="9" fill="#ffffff" stroke="#e5e7eb"/>
      <rect x="0" y="47" width="1444" height="52" fill="#f9fafb"/>
      <rect x="0" y="151" width="1444" height="52" fill="#f9fafb"/>
      <rect x="0" y="255" width="1444" height="52" fill="#f9fafb"/>
      <rect x="0" y="359" width="1444" height="52" fill="#f9fafb"/>
      <rect x="0" y="463" width="1444" height="52" fill="#f9fafb"/>

      <line x1="337" y1="0" x2="337" y2="545" stroke="#e5e7eb"/>
      <line x1="508" y1="0" x2="508" y2="545" stroke="#e5e7eb"/>
      <line x1="762" y1="0" x2="762" y2="545" stroke="#e5e7eb"/>
      <line x1="986" y1="0" x2="986" y2="545" stroke="#e5e7eb"/>
      <line x1="1220" y1="0" x2="1220" y2="545" stroke="#e5e7eb"/>
      <line x1="0" y1="47" x2="1444" y2="47" stroke="#e5e7eb"/>
      <line x1="0" y1="545" x2="1444" y2="545" stroke="#e5e7eb"/>

      <text x="10" y="31" class="head">Model</text>
      <text x="347" y="31" class="head">Accuracy/std</text>
      <text x="518" y="31" class="head">Precision_Unsafe/std</text>
      <text x="772" y="31" class="head">Recall_Unsafe/std</text>
      <text x="996" y="31" class="head">Precision_Safe/std</text>
      <text x="1230" y="31" class="head">Recall_Safe/std</text>
      <path d="M315 17l6 10h-12z" fill="#9ca3af"/>
      <path d="M488 17l6 10h-12z" fill="#9ca3af"/>
      <path d="M742 17l6 10h-12z" fill="#9ca3af"/>
      <path d="M966 17l6 10h-12z" fill="#9ca3af"/>
      <path d="M1200 17l6 10h-12z" fill="#9ca3af"/>
      <path d="M1412 17l6 10h-12z" fill="#9ca3af"/>

      <g transform="translate(10 83)">
        <text class="cell">GPT-4o</text><text x="337" class="cell">73.78/0.30</text><text x="508" class="cell">97.75/0.13</text><text x="762" class="cell">48.66/0.04</text><text x="986" class="cell">65.84/0.55</text><text x="1220" class="cell">98.88/0.04</text>
      </g>
      <g transform="translate(10 135)">
        <text class="cell">GPT-4-Turbo</text><text x="337" class="cell">71.67/0.17</text><text x="508" class="cell">80.13/0.64</text><text x="762" class="cell">57.59/0.69</text><text x="986" class="cell">66.93/0.44</text><text x="1220" class="cell">85.74/0.35</text>
      </g>
      <g transform="translate(10 187)">
        <text class="cell">Perspective</text><text x="337" class="cell">69.28/0.32</text><text x="508" class="cell">69.96/0.79</text><text x="762" class="cell">67.49/0.32</text><text x="986" class="cell">68.64/0.32</text><text x="1220" class="cell">71.06/0.43</text>
      </g>
      <g transform="translate(10 239)">
        <text class="cell">GPT-3.5</text><text x="337" class="cell">64.70/0.44</text><text x="508" class="cell">76.12/0.55</text><text x="762" class="cell">42.79/0.64</text><text x="986" class="cell">60.24/0.76</text><text x="1220" class="cell">86.59/0.32</text>
      </g>
      <g transform="translate(10 291)">
        <text class="cell">Gemini-2.5-flash-preview-05-20</text><text x="337" class="cell">71.27/0.27</text><text x="508" class="cell">73.40/0.23</text><text x="762" class="cell">70.16/0.71</text><text x="986" class="cell">69.17/0.53</text><text x="1220" class="cell">72.48/0.40</text>
      </g>
      <g transform="translate(10 343)">
        <text class="cell">Llama-4-maverick</text><text x="337" class="cell">75.02/0.03</text><text x="508" class="cell">62.35/0.10</text><text x="762" class="cell">83.53/0.03</text><text x="986" class="cell">87.71/0.04</text><text x="1220" class="cell">69.96/0.04</text>
      </g>
      <g transform="translate(10 395)">
        <text class="cell">Gemini-2.0-flash-001</text><text x="337" class="cell">52.04/0.61</text><text x="508" class="cell">0.95/0.05</text><text x="762" class="cell">69.46/0.38</text><text x="986" class="cell">99.60/0.03</text><text x="1220" class="cell">51.93/0.62</text>
      </g>
      <g transform="translate(10 447)">
        <text class="cell">Deepseek-chat-v3-0324</text><text x="337" class="cell">66.00/0.11</text><text x="508" class="cell">45.08/0.11</text><text x="762" class="cell">77.52/0.19</text><text x="986" class="cell">86.93/0.11</text><text x="1220" class="cell">61.28/0.08</text>
      </g>
      <g transform="translate(10 499)">
        <text class="cell">Deepexi-Guard-3B</text><text x="337" class="cell">78.26/0.0</text><text x="508" class="cell">89.35/0.0</text><text x="762" class="cell">64.16/0.0</text><text x="986" class="cell">72.04/0.0</text><text x="1220" class="cell">92.35/0.0</text>
      </g>
      <rect x="1423" y="8" width="10" height="135" rx="5" fill="#c4c4c4"/>
    </g>
  </g>
</svg>
